# xmcd
#
# Track frame offsets:
#	150
#	11250
#	21825
#	32175
#	45150
#	56100
#	65640
#	77565
#	89805
#	101903
#	116453
#	127816
#
# Disc length: 1867 seconds
#
# Revision: 1
# Processed by: cddbd v1.5.2PL0 Copyright (c) Steve Scherf et al.
# Submitted via: audiograbber 1.83.01
#
DISCID=9607490c
DTITLE=Dean Martin - (Remember Me) I'm The One Who Loves You
DYEAR=1965
DGENRE=Country
TTITLE0=(Remember Me) I'm The One Who Loves You
TTITLE1=King Of The Road
TTITLE2=Welcome To My World
TTITLE3=My Shoes Keep Walking Back To You
TTITLE4=Born To Lose
TTITLE5=The Birds And The Bees
TTITLE6=Walk On By
TTITLE7=Red Roses For A Blue Lady
TTITLE8=Take These Chains From My Heart
TTITLE9=Here Comes My Baby
TTITLE10=I Don't Think You Love Me
TTITLE11=Bunning Around
EXTD=
EXTT0=
EXTT1=
EXTT2=
EXTT3=
EXTT4=
EXTT5=
EXTT6=
EXTT7=
EXTT8=
EXTT9=
EXTT10=
EXTT11=
PLAYORDER=
